<svg width="248" height="55" viewBox="0 0 248 55" fill="none" xmlns="http://www.w3.org/2000/svg">
<path d="M19.6 54.72C13.216 54.72 8.44 52.656 5.272 48.528C2.152 44.4 0.592 38.184 0.592 29.88V25.56C0.592 17.256 2.176 11.04 5.344 6.912C8.512 2.784 13.288 0.719999 19.672 0.719999C21.304 0.719999 22.984 0.863999 24.712 1.152C26.488 1.44 28.048 1.824 29.392 2.304V20.88H19.312V4.248L24.352 11.952C22.72 10.512 21.04 9.792 19.312 9.792C16.576 9.792 14.488 11.184 13.048 13.968C11.656 16.752 10.96 20.856 10.96 26.28V29.16C10.96 35.112 11.704 39.36 13.192 41.904C14.728 44.4 17.248 45.648 20.752 45.648C21.952 45.648 23.32 45.528 24.856 45.288C26.392 45.048 27.904 44.736 29.392 44.352V53.712C27.952 54 26.32 54.24 24.496 54.432C22.72 54.624 21.088 54.72 19.6 54.72ZM52 54.72C48.016 54.72 44.848 53.928 42.496 52.344C40.144 50.712 38.44 48.072 37.384 44.424C36.328 40.776 35.8 35.928 35.8 29.88V25.56C35.8 19.464 36.328 14.616 37.384 11.016C38.44 7.368 40.144 4.752 42.496 3.168C44.848 1.536 48.016 0.719999 52 0.719999C55.936 0.719999 59.08 1.536 61.432 3.168C63.832 4.752 65.56 7.368 66.616 11.016C67.672 14.616 68.2 19.464 68.2 25.56V29.88C68.2 35.928 67.672 40.776 66.616 44.424C65.56 48.072 63.832 50.712 61.432 52.344C59.08 53.928 55.936 54.72 52 54.72ZM52 45.792C53.632 45.792 54.856 45.36 55.672 44.496C56.488 43.632 57.04 42.024 57.328 39.672C57.664 37.272 57.832 33.768 57.832 29.16V26.28C57.832 21.672 57.664 18.192 57.328 15.84C57.04 13.44 56.488 11.808 55.672 10.944C54.856 10.08 53.632 9.648 52 9.648C50.416 9.648 49.192 10.08 48.328 10.944C47.512 11.808 46.936 13.44 46.6 15.84C46.312 18.192 46.168 21.672 46.168 26.28V29.16C46.168 33.768 46.312 37.272 46.6 39.672C46.936 42.024 47.512 43.632 48.328 44.496C49.192 45.36 50.416 45.792 52 45.792ZM83.248 54.72C80.368 54.72 77.056 54.432 73.312 53.856V1.584C77.056 1.008 80.368 0.719999 83.248 0.719999C88.24 0.719999 92.272 1.56 95.344 3.24C98.416 4.92 100.672 7.584 102.112 11.232C103.552 14.88 104.272 19.656 104.272 25.56V29.88C104.272 35.736 103.552 40.512 102.112 44.208C100.672 47.856 98.416 50.52 95.344 52.2C92.272 53.88 88.24 54.72 83.248 54.72ZM81.736 44.64C82.168 44.976 82.648 45.24 83.176 45.432C83.752 45.576 84.4 45.648 85.12 45.648C87.184 45.648 88.864 45.072 90.16 43.92C91.456 42.72 92.416 40.896 93.04 38.448C93.712 36 94.048 32.904 94.048 29.16V26.28C94.048 22.488 93.712 19.392 93.04 16.992C92.416 14.544 91.456 12.744 90.16 11.592C88.864 10.392 87.184 9.792 85.12 9.792C84.4 9.792 83.752 9.864 83.176 10.008C82.648 10.152 82.168 10.416 81.736 10.8L83.392 7.488V47.952L81.736 44.64ZM110.896 54V1.44H137.536V9.936H121.12V22.032H136.816V30.384H121.12V45.504H137.536V54H110.896ZM146.68 54V1.44H157.048V45.072H174.76V54H146.68ZM196 54.72C192.016 54.72 188.848 53.928 186.496 52.344C184.144 50.712 182.44 48.072 181.384 44.424C180.328 40.776 179.8 35.928 179.8 29.88V25.56C179.8 19.464 180.328 14.616 181.384 11.016C182.44 7.368 184.144 4.752 186.496 3.168C188.848 1.536 192.016 0.719999 196 0.719999C199.936 0.719999 203.08 1.536 205.432 3.168C207.832 4.752 209.56 7.368 210.616 11.016C211.672 14.616 212.2 19.464 212.2 25.56V29.88C212.2 35.928 211.672 40.776 210.616 44.424C209.56 48.072 207.832 50.712 205.432 52.344C203.08 53.928 199.936 54.72 196 54.72ZM196 45.792C197.632 45.792 198.856 45.36 199.672 44.496C200.488 43.632 201.04 42.024 201.328 39.672C201.664 37.272 201.832 33.768 201.832 29.16V26.28C201.832 21.672 201.664 18.192 201.328 15.84C201.04 13.44 200.488 11.808 199.672 10.944C198.856 10.08 197.632 9.648 196 9.648C194.416 9.648 193.192 10.08 192.328 10.944C191.512 11.808 190.936 13.44 190.6 15.84C190.312 18.192 190.168 21.672 190.168 26.28V29.16C190.168 33.768 190.312 37.272 190.6 39.672C190.936 42.024 191.512 43.632 192.328 44.496C193.192 45.36 194.416 45.792 196 45.792ZM235.672 54.72C222.184 54.72 215.44 46.44 215.44 29.88V25.56C215.44 17.208 217.168 10.992 220.624 6.912C224.08 2.784 229.336 0.719999 236.392 0.719999C238.024 0.719999 239.608 0.815998 241.144 1.008C242.728 1.2 244.24 1.44 245.68 1.728V11.088C244.192 10.704 242.752 10.392 241.36 10.152C239.968 9.912 238.576 9.792 237.184 9.792C233.104 9.792 230.176 11.064 228.4 13.608C226.672 16.104 225.808 20.328 225.808 26.28V29.16C225.808 34.536 226.576 38.64 228.112 41.472C229.696 44.256 232 45.648 235.024 45.648C235.984 45.648 236.896 45.48 237.76 45.144C238.624 44.808 239.56 44.256 240.568 43.488L237.04 49.032V30.384H229.84V22.032H247.12V53.28C245.488 53.712 243.616 54.048 241.504 54.288C239.44 54.576 237.496 54.72 235.672 54.72Z" fill="black"/>
</svg>
